# xmcd
#
# Track frame offsets:
# 150
# 20910
# 37645
# 54717
#
# Disc length: 1358 seconds
#
# Revision: 0
# Processed by: cddbd v1.4PL0 Copyright (c) Steve Scherf et al.
# Submitted via: Audion 3.0.2 (http://www.panic.com/audion/)
#
DISCID=2b054c04
DTITLE=Jun Miyake - Latinism Reversible
DYEAR=1900
DGENRE=
TTITLE0=E chi lo sa
TTITLE1=Spiral To Heaven
TTITLE2=Whips
TTITLE3=Grapes
EXTD=
EXTT0=
EXTT1=
EXTT2=
EXTT3=
PLAYORDER=
